<svg width="1000" height="1000" viewBox="0 0 1000 1000" xmlns="http://www.w3.org/2000/svg"><defs/><path fill="#ffffff" d="M 0 0 L 1000 0 L 1000 1000 L 0 1000 Z"/><path fill="#863a9a" transform="matrix(1.1345586566825505 0 0 1.1345586566825505 6.801959918687166 -11.989176310415246)" d="M 529.90672035629 236.57726 C 529.90672035629 234.67726 529.90672035629 232.87726 529.90672035629 231.47726 C 529.90672035629 224.87726 521.60672035629 226.67726 511.00672035629 219.07726 C 501.80672035629 212.37726 481.20672035629 200.47726 453.60672035629 197.47726 C 452.90672035629 194.87726 452.80672035629 191.77726 455.20672035629 189.67726 C 459.70672035629 185.67726 469.20672035629 185.17726 463.90672035629 171.67726 C 458.60672035629 158.17726 446.90672035629 142.77726 438.50672035629 142.77726 C 430.10672035629 142.77726 417.90672035629 158.17726 412.60672035629 171.67726 C 407.30672035629 185.17726 416.80672035629 185.67726 421.30672035629 189.67726 C 423.70672035629 191.77726 423.50672035629 194.97726 422.90672035629 197.47726 C 395.30672035629 200.47726 374.70672035629 212.37726 365.50672035629 219.07726 C 355.00672035629 226.77726 346.60672035629 224.87726 346.60672035629 231.47726 C 346.60672035629 232.87726 346.60672035629 234.57726 346.60672035629 236.57726 C 354.00672035629 238.27726 387.10672035629 244.97726 438.20672035629 244.97726 C 489.40672035629 244.97726 522.50672035629 238.17726 529.90672035629 236.57726 Z"/><path fill="#863a9a" transform="matrix(1.1345586566825505 0 0 1.1345586566825505 6.801959918687166 -11.989176310415246)" d="M 671.00672035629 293.17726 C 661.50672035629 267.77726 639.50672035629 254.77726 615.60672035629 251.87726 C 592.00672035629 249.07726 570.80672035629 258.87726 559.00672035629 265.97726 C 544.90672035629 255.87726 530.00672035629 253.87726 530.00672035629 253.87726 C 530.00672035629 253.87726 530.00672035629 247.67726 530.00672035629 241.37726 C 520.60672035629 243.37726 487.80672035629 249.67726 438.40672035629 249.67726 C 389.00672035629 249.67726 356.20672035629 243.37726 346.80672035629 241.37726 C 346.80672035629 247.67726 346.80672035629 253.87726 346.80672035629 253.87726 C 346.80672035629 253.87726 309.60672035629 258.67726 297.10672035629 293.07726 C 280.70672035629 293.47726 276.20672035629 280.87726 257.10672035629 260.77726 C 237.50672035629 240.17726 217.20672035629 242.07726 217.20672035629 242.07726 L 217.20672035629 242.07726 C 216.90672035629 241.97726 216.60672035629 241.97726 216.30672035629 241.97726 C 213.90672035629 241.97726 209.40672035629 243.47726 204.40672035629 245.97726 C 200.60672035629 247.87726 192.00672035629 252.57726 193.50672035629 255.67726 C 193.60672035629 255.77726 193.60672035629 255.87726 193.80672035629 256.07726 L 193.80672035629 256.07726 C 193.80672035629 256.07726 193.80672035629 256.07726 193.80672035629 256.07726 C 193.80672035629 256.07726 193.80672035629 256.07726 193.80672035629 256.07726 C 194.20672035629 256.47726 197.70672035629 259.77726 207.20672035629 265.77726 C 219.90672035629 273.67726 237.60672035629 288.27726 245.80672035629 320.57726 C 253.90672035629 352.57726 261.80672035629 374.47726 302.50672035629 382.07726 C 311.10672035629 407.47726 325.90672035629 432.47726 348.00672035629 457.97726 C 348.00672035629 457.97726 347.70672035629 464.07726 351.70672035629 466.67726 C 355.70672035629 469.27726 371.60672035629 481.77726 438.30672035629 481.77726 C 505.00672035629 481.77726 520.90672035629 469.37726 524.90672035629 466.67726 C 528.90672035629 464.07726 528.60672035629 457.97726 528.60672035629 457.97726 C 536.40672035629 448.97726 543.30672035629 440.07726 549.30672035629 431.07726 C 543.90672035629 431.77726 539.00672035629 431.47726 535.50672035629 430.77726 C 524.50672035629 428.77726 516.50672035629 424.67726 510.50672035629 423.57726 C 506.00672035629 436.27726 498.00672035629 447.47726 485.80672035629 453.77726 C 484.70672035629 454.37726 483.80672035629 455.77726 483.80672035629 456.97726 L 483.80672035629 458.07726 C 483.80672035629 459.27726 482.90672035629 460.77726 481.80672035629 461.27726 C 477.00672035629 463.27726 463.40672035629 467.87726 438.00672035629 468.17726 C 436.80672035629 468.17726 435.80672035629 468.17726 435.80672035629 468.17726 C 435.80672035629 468.17726 434.90672035629 468.17726 433.60672035629 468.17726 C 408.30672035629 467.97726 394.60672035629 463.47726 389.80672035629 461.47726 C 388.70672035629 460.97726 387.80672035629 459.57726 387.80672035629 458.27726 L 387.80672035629 457.17726 C 387.80672035629 455.97726 386.90672035629 454.57726 385.80672035629 453.97726 C 371.70672035629 446.77726 363.10672035629 433.07726 359.10672035629 418.07726 C 354.70672035629 401.67726 353.90672035629 373.27726 348.90672035629 356.77726 C 347.40672035629 351.87726 346.70672035629 348.27726 346.30672035629 345.77726 C 345.70672035629 344.87726 345.30672035629 343.77726 345.30672035629 342.47726 C 345.30672035629 337.27726 352.10672035629 334.97726 354.70672035629 334.07726 C 359.30672035629 332.57726 365.70672035629 331.17726 373.90672035629 329.97726 C 390.40672035629 327.57726 412.30672035629 326.27726 435.50672035629 326.17726 C 458.80672035629 326.07726 480.60672035629 327.37726 497.10672035629 329.67726 C 505.30672035629 330.77726 511.70672035629 332.17726 516.30672035629 333.67726 C 518.90672035629 334.57726 525.70672035629 336.77726 525.70672035629 342.07726 C 525.70672035629 343.37726 525.30672035629 344.57726 524.50672035629 345.57726 C 524.10672035629 348.07726 523.40672035629 351.67726 522.00672035629 356.37726 C 521.60672035629 357.77726 521.20672035629 359.17726 520.90672035629 360.67726 C 524.70672035629 358.07726 542.80672035629 346.67726 561.70672035629 352.67726 C 568.40672035629 354.77726 574.40672035629 359.17726 578.70672035629 365.07726 C 582.60672035629 348.57726 584.00672035629 331.87726 583.50672035629 314.67726 C 583.10672035629 304.47726 581.00672035629 295.97726 577.80672035629 288.87726 C 586.10672035629 282.47726 599.10672035629 276.27726 615.70672035629 280.37726 C 645.70672035629 287.77726 654.20672035629 320.57726 644.30672035629 352.37726 C 636.50672035629 377.47726 615.20672035629 402.57726 583.80672035629 398.07726 C 582.80672035629 401.87726 581.20672035629 405.77726 579.10672035629 409.77726 C 577.70672035629 412.37726 576.20672035629 414.77726 574.50672035629 416.77726 C 599.40672035629 423.07726 618.20672035629 419.17726 636.50672035629 407.27726 C 667.00672035629 387.87726 685.60672035629 332.57726 671.00672035629 293.17726 Z M 206.50672035629 250.47726 C 202.20672035629 252.67726 198.70672035629 253.77726 196.70672035629 254.17726 C 198.00672035629 252.97726 200.90672035629 250.87726 205.50672035629 248.57726 C 209.80672035629 246.37726 213.30672035629 245.27726 215.30672035629 244.87726 C 214.00672035629 246.07726 211.10672035629 248.17726 206.50672035629 250.47726 Z"/><path fill="#863a9a" transform="matrix(1.1345586566825505 0 0 1.1345586566825505 6.801959918687166 -11.989176310415246)" d="M 563.20672035629 403.07726 C 570.10672035629 392.17726 570.00672035629 373.87726 555.10672035629 368.97726 C 543.90672035629 365.27726 525.70672035629 375.17726 517.80672035629 380.77726 C 516.60672035629 390.27726 515.60672035629 400.17726 514.20672035629 408.57726 C 540.40672035629 421.67726 554.60672035629 416.57726 563.20672035629 403.07726 Z"/><path fill="#863a9a" transform="matrix(1.1345586566825505 0 0 1.1345586566825505 6.801959918687166 -11.989176310415246)" d="M 435.60672035629 333.97726 C 414.50672035629 334.07726 394.20672035629 335.17726 378.60672035629 337.17726 C 363.50672035629 339.17726 357.10672035629 341.27726 354.50672035629 342.57726 C 357.10672035629 343.77726 363.50672035629 345.97726 378.70672035629 347.87726 C 394.40672035629 349.77726 414.70672035629 350.87726 435.80672035629 350.77726 C 456.90672035629 350.67726 477.20672035629 349.57726 492.80672035629 347.57726 C 507.90672035629 345.57726 514.40672035629 343.47726 516.90672035629 342.17726 C 514.30672035629 340.97726 507.90672035629 338.77726 492.70672035629 336.87726 C 477.00672035629 334.97726 456.70672035629 333.97726 435.60672035629 333.97726 Z"/><path id="text" fill="#863a9a" transform="matrix(1.508437596540006 0 0 1.508437596540006 -8.109360518999074 723.2114457831326)" d="M 161.0208 37.58889984 C 157.4688 35.41289984 154.6688 32.26089984 152.6208 28.13289984 C 150.5728 24.00489984 149.5488 19.12489984 149.5488 13.49289984 C 149.5488 3.76489984 151.6288 -5.24310016 155.7888 -13.53110016 C 159.9488 -21.81910016 166.0928 -28.47510016 174.2208 -33.49910016 C 182.3488 -38.52310016 192.1088 -41.03510016 203.5008 -41.03510016 C 206.4448 -41.03510016 209.5968 -40.81110016 212.9568 -40.36310016 C 216.3168 -39.91510016 219.3728 -39.24310016 222.1248 -38.34710016 C 223.9168 -37.83510016 224.8128 -36.55510016 224.8128 -34.50710016 C 224.8128 -32.84310016 224.1888 -31.27510016 222.9408 -29.80310016 C 221.6928 -28.33110016 220.2368 -27.59510016 218.5728 -27.59510016 C 218.0608 -27.59510016 217.6768 -27.62710016 217.4208 -27.69110016 C 214.0928 -28.45910016 211.2448 -29.01910016 208.8768 -29.37110016 C 206.5088 -29.72310016 204.0128 -29.89910016 201.3888 -29.89910016 C 193.2608 -29.89910016 186.3488 -27.93110016 180.6528 -23.99510016 C 174.9568 -20.05910016 170.7008 -14.85910016 167.8848 -8.39510016 C 165.0688 -1.93110016 163.6608 5.04489984 163.6608 12.53289984 C 163.6608 17.97289984 164.7328 22.18089984 166.8768 25.15689984 C 169.0208 28.13289984 171.8208 29.62089984 175.2768 29.62089984 C 179.1808 29.62089984 182.6048 28.02089984 185.5488 24.82089984 C 188.4928 21.62089984 191.1808 16.43689984 193.6128 9.26889984 C 196.0448 2.10089984 198.4448 -7.62710016 200.8128 -19.91510016 C 201.1968 -21.70710016 201.9648 -22.92310016 203.1168 -23.56310016 C 204.2688 -24.20310016 205.8048 -24.52310016 207.7248 -24.52310016 C 212.2688 -24.52310016 214.5408 -23.05110016 214.5408 -20.10710016 C 214.5408 -19.59510016 214.4448 -18.95510016 214.2528 -18.18710016 C 212.5888 -11.97910016 211.0688 -5.11510016 209.6928 2.40489984 C 208.3168 9.92489984 207.6288 15.63689984 207.6288 19.54089984 C 207.6288 22.99689984 208.1408 25.50889984 209.1648 27.07689984 C 210.1888 28.64489984 211.7568 29.42889984 213.8688 29.42889984 C 215.9168 29.42889984 217.8688 28.74089984 219.7248 27.36489984 C 221.5808 25.98889984 223.9168 23.63689984 226.7328 20.30889984 C 227.5008 19.41289984 228.3648 18.96489984 229.3248 18.96489984 C 230.1568 18.96489984 230.8128 19.34889984 231.2928 20.11689984 C 231.7728 20.88489984 232.0128 21.94089984 232.0128 23.28489984 C 232.0128 25.78089984 231.4048 27.76489984 230.1888 29.23689984 C 227.0528 33.01289984 223.9808 35.89289984 220.9728 37.87689984 C 217.9648 39.86089984 214.2848 40.85289984 209.9328 40.85289984 C 205.4528 40.85289984 201.8368 39.55689984 199.0848 36.96489984 C 196.3328 34.37289984 194.6048 30.70889984 193.9008 25.97289984 C 189.1648 35.89289984 182.1888 40.85289984 172.9728 40.85289984 C 168.5568 40.85289984 164.5728 39.76489984 161.0208 37.58889984 Z M 266.6208 10.27689984 C 267.6128 11.26889984 268.1088 12.50089984 268.1088 13.97289984 C 268.1088 14.80489984 267.9168 15.70089984 267.5328 16.66089984 C 266.5088 19.02889984 265.0688 21.01289984 263.2128 22.61289984 C 261.3568 24.21289984 259.3088 25.01289984 257.0688 25.01289984 C 255.2768 25.01289984 253.7568 24.37289984 252.5088 23.09289984 C 251.2608 21.81289984 250.6368 20.08489984 250.6368 17.90889984 C 250.6368 16.69289984 250.7008 15.38089984 250.8288 13.97289984 C 250.9568 12.94889984 251.0208 12.24489984 251.0208 11.86089984 C 251.0208 11.34889984 250.9088 10.96489984 250.6848 10.70889984 C 250.4608 10.45289984 250.1888 10.32489984 249.8688 10.32489984 C 248.9728 10.32489984 247.7568 11.39689984 246.2208 13.54089984 C 244.6848 15.68489984 243.1488 18.51689984 241.6128 22.03689984 C 240.0768 25.55689984 238.8288 29.26889984 237.8688 33.17289984 C 237.1648 36.24489984 236.3648 38.29289984 235.4688 39.31689984 C 234.5728 40.34089984 233.1008 40.85289984 231.0528 40.85289984 C 228.6208 40.85289984 226.9088 39.57289984 225.9168 37.01289984 C 224.9248 34.45289984 224.4288 30.35689984 224.4288 24.72489984 C 224.4288 16.40489984 225.6128 8.50089984 227.9808 1.01289984 C 228.5568 -0.84310016 229.5008 -2.20310016 230.8128 -3.06710016 C 232.1248 -3.93110016 233.9648 -4.36310016 236.3328 -4.36310016 C 237.6128 -4.36310016 238.5088 -4.20310016 239.0208 -3.88310016 C 239.5328 -3.56310016 239.7888 -2.95510016 239.7888 -2.05910016 C 239.7888 -1.03510016 239.3088 1.26889984 238.3488 4.85289984 C 237.7088 7.41289984 237.1968 9.65289984 236.8128 11.57289984 C 236.4288 13.49289984 236.1088 15.86089984 235.8528 18.67689984 C 237.9648 13.17289984 240.3328 8.69289984 242.9568 5.23689984 C 245.5808 1.78089984 248.1408 -0.68310016 250.6368 -2.15510016 C 253.1328 -3.62710016 255.4048 -4.36310016 257.4528 -4.36310016 C 259.3088 -4.36310016 260.7328 -3.83510016 261.7248 -2.77910016 C 262.7168 -1.72310016 263.2128 -0.17110016 263.2128 1.87689984 C 263.2128 3.09289984 262.8608 5.39689984 262.1568 8.78889984 L 263.0208 8.78889984 C 264.4288 8.78889984 265.6288 9.28489984 266.6208 10.27689984 Z M 316.5408 20.11689984 C 317.0208 20.88489984 317.2608 21.94089984 317.2608 23.28489984 C 317.2608 25.84489984 316.6528 27.82889984 315.4368 29.23689984 C 312.6848 32.62889984 309.6768 35.41289984 306.4128 37.58889984 C 303.1488 39.76489984 299.4048 40.85289984 295.1808 40.85289984 C 282.1248 40.85289984 275.5968 31.66889984 275.5968 13.30089984 C 275.5968 10.48489984 275.6928 7.63689984 275.8848 4.75689984 L 272.1408 4.75689984 C 270.2208 4.75689984 268.9248 4.40489984 268.2528 3.70089984 C 267.5808 2.99689984 267.2448 1.87689984 267.2448 0.34089984 C 267.2448 -3.24310016 268.6848 -5.03510016 271.5648 -5.03510016 L 277.0368 -5.03510016 C 278.1248 -12.07510016 279.7888 -18.50710016 282.0288 -24.33110016 C 284.2688 -30.15510016 286.9728 -34.79510016 290.1408 -38.25110016 C 293.3088 -41.70710016 296.7168 -43.43510016 300.3648 -43.43510016 C 303.0528 -43.43510016 305.1648 -42.25110016 306.7008 -39.88310016 C 308.2368 -37.51510016 309.0048 -34.53910016 309.0048 -30.95510016 C 309.0048 -21.03510016 304.8448 -12.39510016 296.5248 -5.03510016 L 307.2768 -5.03510016 C 308.3008 -5.03510016 309.0368 -4.81110016 309.4848 -4.36310016 C 309.9328 -3.91510016 310.1568 -3.08310016 310.1568 -1.86710016 C 310.1568 2.54889984 306.5408 4.75689984 299.3088 4.75689984 L 287.5968 4.75689984 C 287.4688 7.95689984 287.4048 10.45289984 287.4048 12.24489984 C 287.4048 18.90089984 288.1888 23.57289984 289.7568 26.26089984 C 291.3248 28.94889984 293.8048 30.29289984 297.1968 30.29289984 C 299.9488 30.29289984 302.3808 29.46089984 304.4928 27.79689984 C 306.6048 26.13289984 309.1008 23.63689984 311.9808 20.30889984 C 312.7488 19.41289984 313.6128 18.96489984 314.5728 18.96489984 C 315.4048 18.96489984 316.0608 19.34889984 316.5408 20.11689984 Z M 294.5568 -30.61910016 C 293.3728 -28.21910016 292.2528 -24.89110016 291.1968 -20.63510016 C 290.1408 -16.37910016 289.2608 -11.65910016 288.5568 -6.47510016 C 292.3328 -9.73910016 295.1648 -13.40310016 297.0528 -17.46710016 C 298.9408 -21.53110016 299.8848 -25.22710016 299.8848 -28.55510016 C 299.8848 -32.33110016 299.1808 -34.21910016 297.7728 -34.21910016 C 296.8128 -34.21910016 295.7408 -33.01910016 294.5568 -30.61910016 Z M 316.0128 -12.57110016 C 314.6688 -13.81910016 313.9968 -15.56310016 313.9968 -17.80310016 C 313.9968 -20.04310016 314.8768 -21.91510016 316.6368 -23.41910016 C 318.3968 -24.92310016 320.5888 -25.67510016 323.2128 -25.67510016 C 325.5808 -25.67510016 327.5008 -25.09910016 328.9728 -23.94710016 C 330.4448 -22.79510016 331.1808 -21.16310016 331.1808 -19.05110016 C 331.1808 -16.49110016 330.3488 -14.45910016 328.6848 -12.95510016 C 327.0208 -11.45110016 324.8128 -10.69910016 322.0608 -10.69910016 C 319.3728 -10.69910016 317.3568 -11.32310016 316.0128 -12.57110016 Z M 312.2208 36.43689984 C 310.3328 33.49289984 309.3888 29.58889984 309.3888 24.72489984 C 309.3888 21.84489984 309.7568 18.14889984 310.4928 13.63689984 C 311.2288 9.12489984 312.1728 4.91689984 313.3248 1.01289984 C 313.9008 -1.03510016 314.6688 -2.44310016 315.6288 -3.21110016 C 316.5888 -3.97910016 318.1248 -4.36310016 320.2368 -4.36310016 C 323.5008 -4.36310016 325.1328 -3.27510016 325.1328 -1.09910016 C 325.1328 0.50089984 324.5248 4.21289984 323.3088 10.03689984 C 321.7728 17.07689984 321.0048 21.84489984 321.0048 24.34089984 C 321.0048 26.26089984 321.2608 27.73289984 321.7728 28.75689984 C 322.2848 29.78089984 323.1488 30.29289984 324.3648 30.29289984 C 325.5168 30.29289984 326.9568 29.49289984 328.6848 27.89289984 C 330.4128 26.29289984 332.7168 23.76489984 335.5968 20.30889984 C 336.3648 19.41289984 337.2288 18.96489984 338.1888 18.96489984 C 339.0208 18.96489984 339.6768 19.34889984 340.1568 20.11689984 C 340.6368 20.88489984 340.8768 21.94089984 340.8768 23.28489984 C 340.8768 25.84489984 340.2688 27.82889984 339.0528 29.23689984 C 332.7168 36.98089984 326.7968 40.85289984 321.2928 40.85289984 C 317.1328 40.85289984 314.1088 39.38089984 312.2208 36.43689984 Z M 334.7808 37.01289984 C 333.7888 34.45289984 333.2928 30.35689984 333.2928 24.72489984 C 333.2928 16.40489984 334.4768 8.50089984 336.8448 1.01289984 C 337.4208 -0.84310016 338.3648 -2.20310016 339.6768 -3.06710016 C 340.9888 -3.93110016 342.8288 -4.36310016 345.1968 -4.36310016 C 346.4768 -4.36310016 347.3728 -4.20310016 347.8848 -3.88310016 C 348.3968 -3.56310016 348.6528 -2.95510016 348.6528 -2.05910016 C 348.6528 -1.03510016 348.1728 1.26889984 347.2128 4.85289984 C 346.5728 7.41289984 346.0608 9.63689984 345.6768 11.52489984 C 345.2928 13.41289984 344.9728 15.76489984 344.7168 18.58089984 C 346.4448 13.58889984 348.5088 9.36489984 350.9088 5.90889984 C 353.3088 2.45289984 355.7728 -0.12310016 358.3008 -1.81910016 C 360.8288 -3.51510016 363.2128 -4.36310016 365.4528 -4.36310016 C 367.6928 -4.36310016 369.2768 -3.85110016 370.2048 -2.82710016 C 371.1328 -1.80310016 371.5968 -0.23510016 371.5968 1.87689984 C 371.5968 3.92489984 370.9888 7.63689984 369.7728 13.01289984 C 369.2608 15.31689984 368.9088 17.04489984 368.7168 18.19689984 C 371.9168 10.32489984 375.4688 4.59689984 379.3728 1.01289984 C 383.2768 -2.57110016 386.9248 -4.36310016 390.3168 -4.36310016 C 394.4768 -4.36310016 396.5568 -2.28310016 396.5568 1.87689984 C 396.5568 4.37289984 395.8528 8.88489984 394.4448 15.41289984 C 393.2288 20.98089984 392.6208 24.66089984 392.6208 26.45289984 C 392.6208 29.01289984 393.5488 30.29289984 395.4048 30.29289984 C 396.6848 30.29289984 398.2048 29.50889984 399.9648 27.94089984 C 401.7248 26.37289984 404.0768 23.82889984 407.0208 20.30889984 C 407.7888 19.41289984 408.6528 18.96489984 409.6128 18.96489984 C 410.4448 18.96489984 411.1008 19.34889984 411.5808 20.11689984 C 412.0608 20.88489984 412.3008 21.94089984 412.3008 23.28489984 C 412.3008 25.84489984 411.6928 27.82889984 410.4768 29.23689984 C 407.7248 32.62889984 404.7648 35.41289984 401.5968 37.58889984 C 398.4288 39.76489984 394.8288 40.85289984 390.7968 40.85289984 C 387.5328 40.85289984 385.0688 39.90889984 383.4048 38.02089984 C 381.7408 36.13289984 380.9088 33.39689984 380.9088 29.81289984 C 380.9088 28.02089984 381.3568 24.82089984 382.2528 20.21289984 C 383.0848 16.18089984 383.5008 13.39689984 383.5008 11.86089984 C 383.5008 10.83689984 383.1488 10.32489984 382.4448 10.32489984 C 381.6128 10.32489984 380.4288 11.39689984 378.8928 13.54089984 C 377.3568 15.68489984 375.8208 18.51689984 374.2848 22.03689984 C 372.7488 25.55689984 371.5008 29.26889984 370.5408 33.17289984 C 369.8368 36.24489984 369.0208 38.29289984 368.0928 39.31689984 C 367.1648 40.34089984 365.6768 40.85289984 363.6288 40.85289984 C 361.5168 40.85289984 359.9328 39.84489984 358.8768 37.82889984 C 357.8208 35.81289984 357.2928 33.36489984 357.2928 30.48489984 C 357.2928 28.05289984 357.6128 24.53289984 358.2528 19.92489984 C 358.7648 15.82889984 359.0208 13.14089984 359.0208 11.86089984 C 359.0208 10.83689984 358.6688 10.32489984 357.9648 10.32489984 C 357.0048 10.32489984 355.7888 11.47689984 354.3168 13.78089984 C 352.8448 16.08489984 351.4208 19.02889984 350.0448 22.61289984 C 348.6688 26.19689984 347.5648 29.71689984 346.7328 33.17289984 C 346.0288 36.18089984 345.2128 38.21289984 344.2848 39.26889984 C 343.3568 40.32489984 341.9008 40.85289984 339.9168 40.85289984 C 337.4848 40.85289984 335.7728 39.57289984 334.7808 37.01289984 Z M 407.2608 36.86889984 C 405.4368 34.21289984 404.5248 30.90089984 404.5248 26.93289984 C 404.5248 22.13289984 404.8448 17.73289984 405.4848 13.73289984 C 406.1248 9.73289984 407.1808 5.49289984 408.6528 1.01289984 C 409.2928 -0.90710016 410.1888 -2.28310016 411.3408 -3.11510016 C 412.4928 -3.94710016 414.3168 -4.36310016 416.8128 -4.36310016 C 418.2208 -4.36310016 419.1968 -4.13910016 419.7408 -3.69110016 C 420.2848 -3.24310016 420.5568 -2.57110016 420.5568 -1.67510016 C 420.5568 -1.16310016 420.2048 0.56489984 419.5008 3.50889984 C 418.8608 5.87689984 418.3488 8.02089984 417.9648 9.94089984 C 416.6848 16.66089984 416.0448 21.14089984 416.0448 23.38089984 C 416.0448 24.72489984 416.2048 25.66889984 416.5248 26.21289984 C 416.8448 26.75689984 417.3568 27.02889984 418.0608 27.02889984 C 419.0208 27.02889984 420.2208 26.06889984 421.6608 24.14889984 C 423.1008 22.22889984 424.6368 19.31689984 426.2688 15.41289984 C 427.9008 11.50889984 429.4848 6.70889984 431.0208 1.01289984 C 431.5328 -0.90710016 432.3168 -2.28310016 433.3728 -3.11510016 C 434.4288 -3.94710016 436.0128 -4.36310016 438.1248 -4.36310016 C 439.5968 -4.36310016 440.6208 -4.18710016 441.1968 -3.83510016 C 441.7728 -3.48310016 442.0608 -2.82710016 442.0608 -1.86710016 C 442.0608 -0.26710016 441.2608 4.11689984 439.6608 11.28489984 C 437.8688 19.47689984 436.9728 24.53289984 436.9728 26.45289984 C 436.9728 27.66889984 437.2288 28.61289984 437.7408 29.28489984 C 438.2528 29.95689984 438.9248 30.29289984 439.7568 30.29289984 C 441.0368 30.29289984 442.5568 29.50889984 444.3168 27.94089984 C 446.0768 26.37289984 448.4288 23.82889984 451.3728 20.30889984 C 452.1408 19.41289984 453.0048 18.96489984 453.9648 18.96489984 C 454.7968 18.96489984 455.4528 19.34889984 455.9328 20.11689984 C 456.4128 20.88489984 456.6528 21.94089984 456.6528 23.28489984 C 456.6528 25.84489984 456.0448 27.82889984 454.8288 29.23689984 C 452.0768 32.62889984 449.1168 35.41289984 445.9488 37.58889984 C 442.7808 39.76489984 439.1808 40.85289984 435.1488 40.85289984 C 432.0768 40.85289984 429.8208 39.66889984 428.3808 37.30089984 C 426.9408 34.93289984 426.2208 31.60489984 426.2208 27.31689984 C 425.1328 31.66889984 423.5008 35.01289984 421.3248 37.34889984 C 419.1488 39.68489984 416.8128 40.85289984 414.3168 40.85289984 C 411.4368 40.85289984 409.0848 39.52489984 407.2608 36.86889984 Z M 484.8288 -0.47510016 C 485.5008 0.00489984 485.8368 0.94889984 485.8368 2.35689984 C 485.8368 3.12489984 485.8048 3.73289984 485.7408 4.18089984 C 485.4848 6.16489984 484.6848 11.28489984 483.3408 19.54089984 C 482.3808 25.10889984 481.7728 28.78889984 481.5168 30.58089984 C 479.0848 47.09289984 475.8048 60.13289984 471.6768 69.70089984 C 467.5488 79.26889984 462.0288 84.05289984 455.1168 84.05289984 C 451.8528 84.05289984 449.1968 83.04489984 447.1488 81.02889984 C 445.1008 79.01289984 444.0768 76.37289984 444.0768 73.10889984 C 444.0768 68.56489984 445.8688 63.68489984 449.4528 58.46889984 C 453.0368 53.25289984 459.7568 46.83689984 469.6128 39.22089984 L 470.1888 35.47689984 C 469.1008 37.20489984 467.6768 38.53289984 465.9168 39.46089984 C 464.1568 40.38889984 462.4128 40.85289984 460.6848 40.85289984 C 456.7168 40.85289984 453.5488 39.41289984 451.1808 36.53289984 C 448.8128 33.65289984 447.6288 29.87689984 447.6288 25.20489984 C 447.6288 20.08489984 448.8128 15.23689984 451.1808 10.66089984 C 453.5488 6.08489984 456.7008 2.40489984 460.6368 -0.37910016 C 464.5728 -3.16310016 468.7488 -4.55510016 473.1648 -4.55510016 C 474.5728 -4.55510016 475.5168 -4.28310016 475.9968 -3.73910016 C 476.4768 -3.19510016 476.8768 -2.21910016 477.1968 -0.81110016 C 478.4128 -1.06710016 479.8208 -1.19510016 481.4208 -1.19510016 C 483.0208 -1.19510016 484.1568 -0.95510016 484.8288 -0.47510016 Z M 468.3648 28.46889984 C 469.7088 26.67689984 470.6688 24.11689984 471.2448 20.78889984 L 474.3168 4.37289984 C 471.6928 4.43689984 469.2608 5.44489984 467.0208 7.39689984 C 464.7808 9.34889984 462.9888 11.92489984 461.6448 15.12489984 C 460.3008 18.32489984 459.6288 21.71689984 459.6288 25.30089984 C 459.6288 27.28489984 460.0288 28.75689984 460.8288 29.71689984 C 461.6288 30.67689984 462.7328 31.15689984 464.1408 31.15689984 C 465.6128 31.15689984 467.0208 30.26089984 468.3648 28.46889984 Z M 461.5968 68.98089984 C 463.6128 65.14089984 465.5488 59.02889984 467.4048 50.64489984 C 462.4768 54.86889984 458.9248 58.67689984 456.7488 62.06889984 C 454.5728 65.46089984 453.4848 68.43689984 453.4848 70.99689984 C 453.4848 72.08489984 453.6928 72.98089984 454.1088 73.68489984 C 454.5248 74.38889984 455.2128 74.74089984 456.1728 74.74089984 C 457.7728 74.74089984 459.5808 72.82089984 461.5968 68.98089984 Z M 501.7248 40.66089984 C 499.9648 39.12489984 499.0848 37.39689984 499.0848 35.47689984 C 499.0848 33.81289984 499.6928 32.37289984 500.9088 31.15689984 C 502.1248 29.94089984 503.9168 29.33289984 506.2848 29.33289984 C 507.1168 29.33289984 508.0928 29.41289984 509.2128 29.57289984 C 510.3328 29.73289984 511.1808 29.84489984 511.7568 29.90889984 C 511.6928 28.24489984 511.3248 26.67689984 510.6528 25.20489984 C 509.9808 23.73289984 509.1328 22.30889984 508.1088 20.93289984 C 507.0848 19.55689984 506.1248 18.35689984 505.2288 17.33289984 C 503.2448 21.10889984 501.2768 24.24489984 499.3248 26.74089984 C 497.3728 29.23689984 495.2448 31.60489984 492.9408 33.84489984 C 491.7888 34.99689984 490.5728 35.57289984 489.2928 35.57289984 C 488.2688 35.57289984 487.4368 35.20489984 486.7968 34.46889984 C 486.1568 33.73289984 485.8368 32.82089984 485.8368 31.73289984 C 485.8368 30.45289984 486.2848 29.26889984 487.1808 28.18089984 L 488.4288 26.64489984 C 491.9488 22.29289984 494.6048 18.70889984 496.3968 15.89289984 C 497.5488 14.03689984 498.7168 11.82889984 499.9008 9.26889984 C 501.0848 6.70889984 502.6368 3.22089984 504.5568 -1.19510016 C 505.7728 -4.01110016 508.3008 -5.41910016 512.1408 -5.41910016 C 513.9328 -5.41910016 515.1808 -5.25910016 515.8848 -4.93910016 C 516.5888 -4.61910016 516.9408 -4.10710016 516.9408 -3.40310016 C 516.9408 -3.01910016 516.8128 -2.41110016 516.5568 -1.57910016 C 516.3008 -0.74710016 515.9488 0.08489984 515.5008 0.91689984 C 514.3488 3.22089984 513.7728 5.17289984 513.7728 6.77289984 C 513.7728 7.73289984 514.1088 8.78889984 514.7808 9.94089984 C 515.4528 11.09289984 516.4928 12.53289984 517.9008 14.26089984 C 519.9488 16.94889984 521.5008 19.23689984 522.5568 21.12489984 C 523.6128 23.01289984 524.1408 25.07689984 524.1408 27.31689984 C 524.1408 30.00489984 523.5168 32.54889984 522.2688 34.94889984 C 521.0208 37.34889984 519.2768 39.28489984 517.0368 40.75689984 C 514.7968 42.22889984 512.2368 42.96489984 509.3568 42.96489984 C 506.0288 42.96489984 503.4848 42.19689984 501.7248 40.66089984 Z"/></svg>