<svg width="1000" height="1000" viewBox="0 0 1000 1000" xmlns="http://www.w3.org/2000/svg"><defs/><path fill="#ffffff" d="M 0 0 L 1000 0 L 1000 1000 L 0 1000 Z"/><path id="text" fill="#863a9a" transform="matrix(1.86869981206219 0 0 1.86869981206219 -10.046130189646334 156.61199384930805)" d="M 97.11771428571 201.03771428571 C 93.56571428571 198.86171428571 90.76571428571 195.70971428571 88.71771428571 191.58171428571 C 86.66971428571 187.45371428571 85.64571428571 182.57371428571 85.64571428571 176.94171428571 C 85.64571428571 167.21371428571 87.72571428571 158.20571428571 91.88571428571 149.91771428571 C 96.04571428571 141.62971428571 102.18971428571 134.97371428571 110.31771428571 129.94971428571 C 118.44571428571 124.92571428571 128.20571428571 122.41371428571 139.59771428571 122.41371428571 C 142.54171428571 122.41371428571 145.69371428571 122.63771428571 149.05371428571 123.08571428571 C 152.41371428571 123.53371428571 155.46971428571 124.20571428571 158.22171428571 125.10171428571 C 160.01371428571 125.61371428571 160.90971428571 126.89371428571 160.90971428571 128.94171428571 C 160.90971428571 130.60571428571 160.28571428571 132.17371428571 159.03771428571 133.64571428571 C 157.78971428571 135.11771428571 156.33371428571 135.85371428571 154.66971428571 135.85371428571 C 154.15771428571 135.85371428571 153.77371428571 135.82171428571 153.51771428571 135.75771428571 C 150.18971428571 134.98971428571 147.34171428571 134.42971428571 144.97371428571 134.07771428571 C 142.60571428571 133.72571428571 140.10971428571 133.54971428571 137.48571428571 133.54971428571 C 129.35771428571 133.54971428571 122.44571428571 135.51771428571 116.74971428571 139.45371428571 C 111.05371428571 143.38971428571 106.79771428571 148.58971428571 103.98171428571 155.05371428571 C 101.16571428571 161.51771428571 99.75771428571 168.49371428571 99.75771428571 175.98171428571 C 99.75771428571 181.42171428571 100.82971428571 185.62971428571 102.97371428571 188.60571428571 C 105.11771428571 191.58171428571 107.91771428571 193.06971428571 111.37371428571 193.06971428571 C 115.27771428571 193.06971428571 118.70171428571 191.46971428571 121.64571428571 188.26971428571 C 124.58971428571 185.06971428571 127.27771428571 179.88571428571 129.70971428571 172.71771428571 C 132.14171428571 165.54971428571 134.54171428571 155.82171428571 136.90971428571 143.53371428571 C 137.29371428571 141.74171428571 138.06171428571 140.52571428571 139.21371428571 139.88571428571 C 140.36571428571 139.24571428571 141.90171428571 138.92571428571 143.82171428571 138.92571428571 C 148.36571428571 138.92571428571 150.63771428571 140.39771428571 150.63771428571 143.34171428571 C 150.63771428571 143.85371428571 150.54171428571 144.49371428571 150.34971428571 145.26171428571 C 148.68571428571 151.46971428571 147.16571428571 158.33371428571 145.78971428571 165.85371428571 C 144.41371428571 173.37371428571 143.72571428571 179.08571428571 143.72571428571 182.98971428571 C 143.72571428571 186.44571428571 144.23771428571 188.95771428571 145.26171428571 190.52571428571 C 146.28571428571 192.09371428571 147.85371428571 192.87771428571 149.96571428571 192.87771428571 C 152.01371428571 192.87771428571 153.96571428571 192.18971428571 155.82171428571 190.81371428571 C 157.67771428571 189.43771428571 160.01371428571 187.08571428571 162.82971428571 183.75771428571 C 163.59771428571 182.86171428571 164.46171428571 182.41371428571 165.42171428571 182.41371428571 C 166.25371428571 182.41371428571 166.90971428571 182.79771428571 167.38971428571 183.56571428571 C 167.86971428571 184.33371428571 168.10971428571 185.38971428571 168.10971428571 186.73371428571 C 168.10971428571 189.22971428571 167.50171428571 191.21371428571 166.28571428571 192.68571428571 C 163.14971428571 196.46171428571 160.07771428571 199.34171428571 157.06971428571 201.32571428571 C 154.06171428571 203.30971428571 150.38171428571 204.30171428571 146.02971428571 204.30171428571 C 141.54971428571 204.30171428571 137.93371428571 203.00571428571 135.18171428571 200.41371428571 C 132.42971428571 197.82171428571 130.70171428571 194.15771428571 129.99771428571 189.42171428571 C 125.26171428571 199.34171428571 118.28571428571 204.30171428571 109.06971428571 204.30171428571 C 104.65371428571 204.30171428571 100.66971428571 203.21371428571 97.11771428571 201.03771428571 Z M 202.71771428571 173.72571428571 C 203.70971428571 174.71771428571 204.20571428571 175.94971428571 204.20571428571 177.42171428571 C 204.20571428571 178.25371428571 204.01371428571 179.14971428571 203.62971428571 180.10971428571 C 202.60571428571 182.47771428571 201.16571428571 184.46171428571 199.30971428571 186.06171428571 C 197.45371428571 187.66171428571 195.40571428571 188.46171428571 193.16571428571 188.46171428571 C 191.37371428571 188.46171428571 189.85371428571 187.82171428571 188.60571428571 186.54171428571 C 187.35771428571 185.26171428571 186.73371428571 183.53371428571 186.73371428571 181.35771428571 C 186.73371428571 180.14171428571 186.79771428571 178.82971428571 186.92571428571 177.42171428571 C 187.05371428571 176.39771428571 187.11771428571 175.69371428571 187.11771428571 175.30971428571 C 187.11771428571 174.79771428571 187.00571428571 174.41371428571 186.78171428571 174.15771428571 C 186.55771428571 173.90171428571 186.28571428571 173.77371428571 185.96571428571 173.77371428571 C 185.06971428571 173.77371428571 183.85371428571 174.84571428571 182.31771428571 176.98971428571 C 180.78171428571 179.13371428571 179.24571428571 181.96571428571 177.70971428571 185.48571428571 C 176.17371428571 189.00571428571 174.92571428571 192.71771428571 173.96571428571 196.62171428571 C 173.26171428571 199.69371428571 172.46171428571 201.74171428571 171.56571428571 202.76571428571 C 170.66971428571 203.78971428571 169.19771428571 204.30171428571 167.14971428571 204.30171428571 C 164.71771428571 204.30171428571 163.00571428571 203.02171428571 162.01371428571 200.46171428571 C 161.02171428571 197.90171428571 160.52571428571 193.80571428571 160.52571428571 188.17371428571 C 160.52571428571 179.85371428571 161.70971428571 171.94971428571 164.07771428571 164.46171428571 C 164.65371428571 162.60571428571 165.59771428571 161.24571428571 166.90971428571 160.38171428571 C 168.22171428571 159.51771428571 170.06171428571 159.08571428571 172.42971428571 159.08571428571 C 173.70971428571 159.08571428571 174.60571428571 159.24571428571 175.11771428571 159.56571428571 C 175.62971428571 159.88571428571 175.88571428571 160.49371428571 175.88571428571 161.38971428571 C 175.88571428571 162.41371428571 175.40571428571 164.71771428571 174.44571428571 168.30171428571 C 173.80571428571 170.86171428571 173.29371428571 173.10171428571 172.90971428571 175.02171428571 C 172.52571428571 176.94171428571 172.20571428571 179.30971428571 171.94971428571 182.12571428571 C 174.06171428571 176.62171428571 176.42971428571 172.14171428571 179.05371428571 168.68571428571 C 181.67771428571 165.22971428571 184.23771428571 162.76571428571 186.73371428571 161.29371428571 C 189.22971428571 159.82171428571 191.50171428571 159.08571428571 193.54971428571 159.08571428571 C 195.40571428571 159.08571428571 196.82971428571 159.61371428571 197.82171428571 160.66971428571 C 198.81371428571 161.72571428571 199.30971428571 163.27771428571 199.30971428571 165.32571428571 C 199.30971428571 166.54171428571 198.95771428571 168.84571428571 198.25371428571 172.23771428571 L 199.11771428571 172.23771428571 C 200.52571428571 172.23771428571 201.72571428571 172.73371428571 202.71771428571 173.72571428571 Z M 252.63771428571 183.56571428571 C 253.11771428571 184.33371428571 253.35771428571 185.38971428571 253.35771428571 186.73371428571 C 253.35771428571 189.29371428571 252.74971428571 191.27771428571 251.53371428571 192.68571428571 C 248.78171428571 196.07771428571 245.77371428571 198.86171428571 242.50971428571 201.03771428571 C 239.24571428571 203.21371428571 235.50171428571 204.30171428571 231.27771428571 204.30171428571 C 218.22171428571 204.30171428571 211.69371428571 195.11771428571 211.69371428571 176.74971428571 C 211.69371428571 173.93371428571 211.78971428571 171.08571428571 211.98171428571 168.20571428571 L 208.23771428571 168.20571428571 C 206.31771428571 168.20571428571 205.02171428571 167.85371428571 204.34971428571 167.14971428571 C 203.67771428571 166.44571428571 203.34171428571 165.32571428571 203.34171428571 163.78971428571 C 203.34171428571 160.20571428571 204.78171428571 158.41371428571 207.66171428571 158.41371428571 L 213.13371428571 158.41371428571 C 214.22171428571 151.37371428571 215.88571428571 144.94171428571 218.12571428571 139.11771428571 C 220.36571428571 133.29371428571 223.06971428571 128.65371428571 226.23771428571 125.19771428571 C 229.40571428571 121.74171428571 232.81371428571 120.01371428571 236.46171428571 120.01371428571 C 239.14971428571 120.01371428571 241.26171428571 121.19771428571 242.79771428571 123.56571428571 C 244.33371428571 125.93371428571 245.10171428571 128.90971428571 245.10171428571 132.49371428571 C 245.10171428571 142.41371428571 240.94171428571 151.05371428571 232.62171428571 158.41371428571 L 243.37371428571 158.41371428571 C 244.39771428571 158.41371428571 245.13371428571 158.63771428571 245.58171428571 159.08571428571 C 246.02971428571 159.53371428571 246.25371428571 160.36571428571 246.25371428571 161.58171428571 C 246.25371428571 165.99771428571 242.63771428571 168.20571428571 235.40571428571 168.20571428571 L 223.69371428571 168.20571428571 C 223.56571428571 171.40571428571 223.50171428571 173.90171428571 223.50171428571 175.69371428571 C 223.50171428571 182.34971428571 224.28571428571 187.02171428571 225.85371428571 189.70971428571 C 227.42171428571 192.39771428571 229.90171428571 193.74171428571 233.29371428571 193.74171428571 C 236.04571428571 193.74171428571 238.47771428571 192.90971428571 240.58971428571 191.24571428571 C 242.70171428571 189.58171428571 245.19771428571 187.08571428571 248.07771428571 183.75771428571 C 248.84571428571 182.86171428571 249.70971428571 182.41371428571 250.66971428571 182.41371428571 C 251.50171428571 182.41371428571 252.15771428571 182.79771428571 252.63771428571 183.56571428571 Z M 230.65371428571 132.82971428571 C 229.46971428571 135.22971428571 228.34971428571 138.55771428571 227.29371428571 142.81371428571 C 226.23771428571 147.06971428571 225.35771428571 151.78971428571 224.65371428571 156.97371428571 C 228.42971428571 153.70971428571 231.26171428571 150.04571428571 233.14971428571 145.98171428571 C 235.03771428571 141.91771428571 235.98171428571 138.22171428571 235.98171428571 134.89371428571 C 235.98171428571 131.11771428571 235.27771428571 129.22971428571 233.86971428571 129.22971428571 C 232.90971428571 129.22971428571 231.83771428571 130.42971428571 230.65371428571 132.82971428571 Z M 252.10971428571 150.87771428571 C 250.76571428571 149.62971428571 250.09371428571 147.88571428571 250.09371428571 145.64571428571 C 250.09371428571 143.40571428571 250.97371428571 141.53371428571 252.73371428571 140.02971428571 C 254.49371428571 138.52571428571 256.68571428571 137.77371428571 259.30971428571 137.77371428571 C 261.67771428571 137.77371428571 263.59771428571 138.34971428571 265.06971428571 139.50171428571 C 266.54171428571 140.65371428571 267.27771428571 142.28571428571 267.27771428571 144.39771428571 C 267.27771428571 146.95771428571 266.44571428571 148.98971428571 264.78171428571 150.49371428571 C 263.11771428571 151.99771428571 260.90971428571 152.74971428571 258.15771428571 152.74971428571 C 255.46971428571 152.74971428571 253.45371428571 152.12571428571 252.10971428571 150.87771428571 Z M 248.31771428571 199.88571428571 C 246.42971428571 196.94171428571 245.48571428571 193.03771428571 245.48571428571 188.17371428571 C 245.48571428571 185.29371428571 245.85371428571 181.59771428571 246.58971428571 177.08571428571 C 247.32571428571 172.57371428571 248.26971428571 168.36571428571 249.42171428571 164.46171428571 C 249.99771428571 162.41371428571 250.76571428571 161.00571428571 251.72571428571 160.23771428571 C 252.68571428571 159.46971428571 254.22171428571 159.08571428571 256.33371428571 159.08571428571 C 259.59771428571 159.08571428571 261.22971428571 160.17371428571 261.22971428571 162.34971428571 C 261.22971428571 163.94971428571 260.62171428571 167.66171428571 259.40571428571 173.48571428571 C 257.86971428571 180.52571428571 257.10171428571 185.29371428571 257.10171428571 187.78971428571 C 257.10171428571 189.70971428571 257.35771428571 191.18171428571 257.86971428571 192.20571428571 C 258.38171428571 193.22971428571 259.24571428571 193.74171428571 260.46171428571 193.74171428571 C 261.61371428571 193.74171428571 263.05371428571 192.94171428571 264.78171428571 191.34171428571 C 266.50971428571 189.74171428571 268.81371428571 187.21371428571 271.69371428571 183.75771428571 C 272.46171428571 182.86171428571 273.32571428571 182.41371428571 274.28571428571 182.41371428571 C 275.11771428571 182.41371428571 275.77371428571 182.79771428571 276.25371428571 183.56571428571 C 276.73371428571 184.33371428571 276.97371428571 185.38971428571 276.97371428571 186.73371428571 C 276.97371428571 189.29371428571 276.36571428571 191.27771428571 275.14971428571 192.68571428571 C 268.81371428571 200.42971428571 262.89371428571 204.30171428571 257.38971428571 204.30171428571 C 253.22971428571 204.30171428571 250.20571428571 202.82971428571 248.31771428571 199.88571428571 Z M 270.87771428571 200.46171428571 C 269.88571428571 197.90171428571 269.38971428571 193.80571428571 269.38971428571 188.17371428571 C 269.38971428571 179.85371428571 270.57371428571 171.94971428571 272.94171428571 164.46171428571 C 273.51771428571 162.60571428571 274.46171428571 161.24571428571 275.77371428571 160.38171428571 C 277.08571428571 159.51771428571 278.92571428571 159.08571428571 281.29371428571 159.08571428571 C 282.57371428571 159.08571428571 283.46971428571 159.24571428571 283.98171428571 159.56571428571 C 284.49371428571 159.88571428571 284.74971428571 160.49371428571 284.74971428571 161.38971428571 C 284.74971428571 162.41371428571 284.26971428571 164.71771428571 283.30971428571 168.30171428571 C 282.66971428571 170.86171428571 282.15771428571 173.08571428571 281.77371428571 174.97371428571 C 281.38971428571 176.86171428571 281.06971428571 179.21371428571 280.81371428571 182.02971428571 C 282.54171428571 177.03771428571 284.60571428571 172.81371428571 287.00571428571 169.35771428571 C 289.40571428571 165.90171428571 291.86971428571 163.32571428571 294.39771428571 161.62971428571 C 296.92571428571 159.93371428571 299.30971428571 159.08571428571 301.54971428571 159.08571428571 C 303.78971428571 159.08571428571 305.37371428571 159.59771428571 306.30171428571 160.62171428571 C 307.22971428571 161.64571428571 307.69371428571 163.21371428571 307.69371428571 165.32571428571 C 307.69371428571 167.37371428571 307.08571428571 171.08571428571 305.86971428571 176.46171428571 C 305.35771428571 178.76571428571 305.00571428571 180.49371428571 304.81371428571 181.64571428571 C 308.01371428571 173.77371428571 311.56571428571 168.04571428571 315.46971428571 164.46171428571 C 319.37371428571 160.87771428571 323.02171428571 159.08571428571 326.41371428571 159.08571428571 C 330.57371428571 159.08571428571 332.65371428571 161.16571428571 332.65371428571 165.32571428571 C 332.65371428571 167.82171428571 331.94971428571 172.33371428571 330.54171428571 178.86171428571 C 329.32571428571 184.42971428571 328.71771428571 188.10971428571 328.71771428571 189.90171428571 C 328.71771428571 192.46171428571 329.64571428571 193.74171428571 331.50171428571 193.74171428571 C 332.78171428571 193.74171428571 334.30171428571 192.95771428571 336.06171428571 191.38971428571 C 337.82171428571 189.82171428571 340.17371428571 187.27771428571 343.11771428571 183.75771428571 C 343.88571428571 182.86171428571 344.74971428571 182.41371428571 345.70971428571 182.41371428571 C 346.54171428571 182.41371428571 347.19771428571 182.79771428571 347.67771428571 183.56571428571 C 348.15771428571 184.33371428571 348.39771428571 185.38971428571 348.39771428571 186.73371428571 C 348.39771428571 189.29371428571 347.78971428571 191.27771428571 346.57371428571 192.68571428571 C 343.82171428571 196.07771428571 340.86171428571 198.86171428571 337.69371428571 201.03771428571 C 334.52571428571 203.21371428571 330.92571428571 204.30171428571 326.89371428571 204.30171428571 C 323.62971428571 204.30171428571 321.16571428571 203.35771428571 319.50171428571 201.46971428571 C 317.83771428571 199.58171428571 317.00571428571 196.84571428571 317.00571428571 193.26171428571 C 317.00571428571 191.46971428571 317.45371428571 188.26971428571 318.34971428571 183.66171428571 C 319.18171428571 179.62971428571 319.59771428571 176.84571428571 319.59771428571 175.30971428571 C 319.59771428571 174.28571428571 319.24571428571 173.77371428571 318.54171428571 173.77371428571 C 317.70971428571 173.77371428571 316.52571428571 174.84571428571 314.98971428571 176.98971428571 C 313.45371428571 179.13371428571 311.91771428571 181.96571428571 310.38171428571 185.48571428571 C 308.84571428571 189.00571428571 307.59771428571 192.71771428571 306.63771428571 196.62171428571 C 305.93371428571 199.69371428571 305.11771428571 201.74171428571 304.18971428571 202.76571428571 C 303.26171428571 203.78971428571 301.77371428571 204.30171428571 299.72571428571 204.30171428571 C 297.61371428571 204.30171428571 296.02971428571 203.29371428571 294.97371428571 201.27771428571 C 293.91771428571 199.26171428571 293.38971428571 196.81371428571 293.38971428571 193.93371428571 C 293.38971428571 191.50171428571 293.70971428571 187.98171428571 294.34971428571 183.37371428571 C 294.86171428571 179.27771428571 295.11771428571 176.58971428571 295.11771428571 175.30971428571 C 295.11771428571 174.28571428571 294.76571428571 173.77371428571 294.06171428571 173.77371428571 C 293.10171428571 173.77371428571 291.88571428571 174.92571428571 290.41371428571 177.22971428571 C 288.94171428571 179.53371428571 287.51771428571 182.47771428571 286.14171428571 186.06171428571 C 284.76571428571 189.64571428571 283.66171428571 193.16571428571 282.82971428571 196.62171428571 C 282.12571428571 199.62971428571 281.30971428571 201.66171428571 280.38171428571 202.71771428571 C 279.45371428571 203.77371428571 277.99771428571 204.30171428571 276.01371428571 204.30171428571 C 273.58171428571 204.30171428571 271.86971428571 203.02171428571 270.87771428571 200.46171428571 Z M 343.35771428571 200.31771428571 C 341.53371428571 197.66171428571 340.62171428571 194.34971428571 340.62171428571 190.38171428571 C 340.62171428571 185.58171428571 340.94171428571 181.18171428571 341.58171428571 177.18171428571 C 342.22171428571 173.18171428571 343.27771428571 168.94171428571 344.74971428571 164.46171428571 C 345.38971428571 162.54171428571 346.28571428571 161.16571428571 347.43771428571 160.33371428571 C 348.58971428571 159.50171428571 350.41371428571 159.08571428571 352.90971428571 159.08571428571 C 354.31771428571 159.08571428571 355.29371428571 159.30971428571 355.83771428571 159.75771428571 C 356.38171428571 160.20571428571 356.65371428571 160.87771428571 356.65371428571 161.77371428571 C 356.65371428571 162.28571428571 356.30171428571 164.01371428571 355.59771428571 166.95771428571 C 354.95771428571 169.32571428571 354.44571428571 171.46971428571 354.06171428571 173.38971428571 C 352.78171428571 180.10971428571 352.14171428571 184.58971428571 352.14171428571 186.82971428571 C 352.14171428571 188.17371428571 352.30171428571 189.11771428571 352.62171428571 189.66171428571 C 352.94171428571 190.20571428571 353.45371428571 190.47771428571 354.15771428571 190.47771428571 C 355.11771428571 190.47771428571 356.31771428571 189.51771428571 357.75771428571 187.59771428571 C 359.19771428571 185.67771428571 360.73371428571 182.76571428571 362.36571428571 178.86171428571 C 363.99771428571 174.95771428571 365.58171428571 170.15771428571 367.11771428571 164.46171428571 C 367.62971428571 162.54171428571 368.41371428571 161.16571428571 369.46971428571 160.33371428571 C 370.52571428571 159.50171428571 372.10971428571 159.08571428571 374.22171428571 159.08571428571 C 375.69371428571 159.08571428571 376.71771428571 159.26171428571 377.29371428571 159.61371428571 C 377.86971428571 159.96571428571 378.15771428571 160.62171428571 378.15771428571 161.58171428571 C 378.15771428571 163.18171428571 377.35771428571 167.56571428571 375.75771428571 174.73371428571 C 373.96571428571 182.92571428571 373.06971428571 187.98171428571 373.06971428571 189.90171428571 C 373.06971428571 191.11771428571 373.32571428571 192.06171428571 373.83771428571 192.73371428571 C 374.34971428571 193.40571428571 375.02171428571 193.74171428571 375.85371428571 193.74171428571 C 377.13371428571 193.74171428571 378.65371428571 192.95771428571 380.41371428571 191.38971428571 C 382.17371428571 189.82171428571 384.52571428571 187.27771428571 387.46971428571 183.75771428571 C 388.23771428571 182.86171428571 389.10171428571 182.41371428571 390.06171428571 182.41371428571 C 390.89371428571 182.41371428571 391.54971428571 182.79771428571 392.02971428571 183.56571428571 C 392.50971428571 184.33371428571 392.74971428571 185.38971428571 392.74971428571 186.73371428571 C 392.74971428571 189.29371428571 392.14171428571 191.27771428571 390.92571428571 192.68571428571 C 388.17371428571 196.07771428571 385.21371428571 198.86171428571 382.04571428571 201.03771428571 C 378.87771428571 203.21371428571 375.27771428571 204.30171428571 371.24571428571 204.30171428571 C 368.17371428571 204.30171428571 365.91771428571 203.11771428571 364.47771428571 200.74971428571 C 363.03771428571 198.38171428571 362.31771428571 195.05371428571 362.31771428571 190.76571428571 C 361.22971428571 195.11771428571 359.59771428571 198.46171428571 357.42171428571 200.79771428571 C 355.24571428571 203.13371428571 352.90971428571 204.30171428571 350.41371428571 204.30171428571 C 347.53371428571 204.30171428571 345.18171428571 202.97371428571 343.35771428571 200.31771428571 Z M 420.92571428571 162.97371428571 C 421.59771428571 163.45371428571 421.93371428571 164.39771428571 421.93371428571 165.80571428571 C 421.93371428571 166.57371428571 421.90171428571 167.18171428571 421.83771428571 167.62971428571 C 421.58171428571 169.61371428571 420.78171428571 174.73371428571 419.43771428571 182.98971428571 C 418.47771428571 188.55771428571 417.86971428571 192.23771428571 417.61371428571 194.02971428571 C 415.18171428571 210.54171428571 411.90171428571 223.58171428571 407.77371428571 233.14971428571 C 403.64571428571 242.71771428571 398.12571428571 247.50171428571 391.21371428571 247.50171428571 C 387.94971428571 247.50171428571 385.29371428571 246.49371428571 383.24571428571 244.47771428571 C 381.19771428571 242.46171428571 380.17371428571 239.82171428571 380.17371428571 236.55771428571 C 380.17371428571 232.01371428571 381.96571428571 227.13371428571 385.54971428571 221.91771428571 C 389.13371428571 216.70171428571 395.85371428571 210.28571428571 405.70971428571 202.66971428571 L 406.28571428571 198.92571428571 C 405.19771428571 200.65371428571 403.77371428571 201.98171428571 402.01371428571 202.90971428571 C 400.25371428571 203.83771428571 398.50971428571 204.30171428571 396.78171428571 204.30171428571 C 392.81371428571 204.30171428571 389.64571428571 202.86171428571 387.27771428571 199.98171428571 C 384.90971428571 197.10171428571 383.72571428571 193.32571428571 383.72571428571 188.65371428571 C 383.72571428571 183.53371428571 384.90971428571 178.68571428571 387.27771428571 174.10971428571 C 389.64571428571 169.53371428571 392.79771428571 165.85371428571 396.73371428571 163.06971428571 C 400.66971428571 160.28571428571 404.84571428571 158.89371428571 409.26171428571 158.89371428571 C 410.66971428571 158.89371428571 411.61371428571 159.16571428571 412.09371428571 159.70971428571 C 412.57371428571 160.25371428571 412.97371428571 161.22971428571 413.29371428571 162.63771428571 C 414.50971428571 162.38171428571 415.91771428571 162.25371428571 417.51771428571 162.25371428571 C 419.11771428571 162.25371428571 420.25371428571 162.49371428571 420.92571428571 162.97371428571 Z M 404.46171428571 191.91771428571 C 405.80571428571 190.12571428571 406.76571428571 187.56571428571 407.34171428571 184.23771428571 L 410.41371428571 167.82171428571 C 407.78971428571 167.88571428571 405.35771428571 168.89371428571 403.11771428571 170.84571428571 C 400.87771428571 172.79771428571 399.08571428571 175.37371428571 397.74171428571 178.57371428571 C 396.39771428571 181.77371428571 395.72571428571 185.16571428571 395.72571428571 188.74971428571 C 395.72571428571 190.73371428571 396.12571428571 192.20571428571 396.92571428571 193.16571428571 C 397.72571428571 194.12571428571 398.82971428571 194.60571428571 400.23771428571 194.60571428571 C 401.70971428571 194.60571428571 403.11771428571 193.70971428571 404.46171428571 191.91771428571 Z M 397.69371428571 232.42971428571 C 399.70971428571 228.58971428571 401.64571428571 222.47771428571 403.50171428571 214.09371428571 C 398.57371428571 218.31771428571 395.02171428571 222.12571428571 392.84571428571 225.51771428571 C 390.66971428571 228.90971428571 389.58171428571 231.88571428571 389.58171428571 234.44571428571 C 389.58171428571 235.53371428571 389.78971428571 236.42971428571 390.20571428571 237.13371428571 C 390.62171428571 237.83771428571 391.30971428571 238.18971428571 392.26971428571 238.18971428571 C 393.86971428571 238.18971428571 395.67771428571 236.26971428571 397.69371428571 232.42971428571 Z M 437.82171428571 204.10971428571 C 436.06171428571 202.57371428571 435.18171428571 200.84571428571 435.18171428571 198.92571428571 C 435.18171428571 197.26171428571 435.78971428571 195.82171428571 437.00571428571 194.60571428571 C 438.22171428571 193.38971428571 440.01371428571 192.78171428571 442.38171428571 192.78171428571 C 443.21371428571 192.78171428571 444.18971428571 192.86171428571 445.30971428571 193.02171428571 C 446.42971428571 193.18171428571 447.27771428571 193.29371428571 447.85371428571 193.35771428571 C 447.78971428571 191.69371428571 447.42171428571 190.12571428571 446.74971428571 188.65371428571 C 446.07771428571 187.18171428571 445.22971428571 185.75771428571 444.20571428571 184.38171428571 C 443.18171428571 183.00571428571 442.22171428571 181.80571428571 441.32571428571 180.78171428571 C 439.34171428571 184.55771428571 437.37371428571 187.69371428571 435.42171428571 190.18971428571 C 433.46971428571 192.68571428571 431.34171428571 195.05371428571 429.03771428571 197.29371428571 C 427.88571428571 198.44571428571 426.66971428571 199.02171428571 425.38971428571 199.02171428571 C 424.36571428571 199.02171428571 423.53371428571 198.65371428571 422.89371428571 197.91771428571 C 422.25371428571 197.18171428571 421.93371428571 196.26971428571 421.93371428571 195.18171428571 C 421.93371428571 193.90171428571 422.38171428571 192.71771428571 423.27771428571 191.62971428571 L 424.52571428571 190.09371428571 C 428.04571428571 185.74171428571 430.70171428571 182.15771428571 432.49371428571 179.34171428571 C 433.64571428571 177.48571428571 434.81371428571 175.27771428571 435.99771428571 172.71771428571 C 437.18171428571 170.15771428571 438.73371428571 166.66971428571 440.65371428571 162.25371428571 C 441.86971428571 159.43771428571 444.39771428571 158.02971428571 448.23771428571 158.02971428571 C 450.02971428571 158.02971428571 451.27771428571 158.18971428571 451.98171428571 158.50971428571 C 452.68571428571 158.82971428571 453.03771428571 159.34171428571 453.03771428571 160.04571428571 C 453.03771428571 160.42971428571 452.90971428571 161.03771428571 452.65371428571 161.86971428571 C 452.39771428571 162.70171428571 452.04571428571 163.53371428571 451.59771428571 164.36571428571 C 450.44571428571 166.66971428571 449.86971428571 168.62171428571 449.86971428571 170.22171428571 C 449.86971428571 171.18171428571 450.20571428571 172.23771428571 450.87771428571 173.38971428571 C 451.54971428571 174.54171428571 452.58971428571 175.98171428571 453.99771428571 177.70971428571 C 456.04571428571 180.39771428571 457.59771428571 182.68571428571 458.65371428571 184.57371428571 C 459.70971428571 186.46171428571 460.23771428571 188.52571428571 460.23771428571 190.76571428571 C 460.23771428571 193.45371428571 459.61371428571 195.99771428571 458.36571428571 198.39771428571 C 457.11771428571 200.79771428571 455.37371428571 202.73371428571 453.13371428571 204.20571428571 C 450.89371428571 205.67771428571 448.33371428571 206.41371428571 445.45371428571 206.41371428571 C 442.12571428571 206.41371428571 439.58171428571 205.64571428571 437.82171428571 204.10971428571 Z"/></svg>